<svg version="1" xmlns="http://www.w3.org/2000/svg" width="213.333" height="213.333" viewBox="0 0 160.000000 160.000000"><path d="M92.6 9.2c-2.5 3.5-9.2 13-14.9 21.3L67.4 45.4l-5.6.3c-3.2.1-8.1 1.3-11.5 2.7-5.7 2.4-32.7 16.9-35 18.7-2.2 1.9-4.1 7.5-4.7 13.9-.5 6-1 10.3-2.2 18.9-2 15.5-1.2 25.1 2.3 25.1 1.2 0 1.1.7-.6 3.3-1.8 3-8.5 24.6-7.8 25.4 1 1 19.7-14.4 22.9-18.8l3.8-5.2 1.5 3.4c1.8 4.2 3.4 6.2 6 7.6 2.6 1.5 7.5-1 7.5-3.7 0-1.1.5-2 1-2 .6 0 1 .4 1 .8 0 1.1 6.1 4.6 9.4 5.4 2.3.5 3.4.1 5.3-1.8 2.2-2.2 2.9-2.3 6.1-1.5 2 .6 8 1 13.2 1.1 28.1.4 28.4.4 37-2 7.1-1.9 10.7-2.3 21.7-2.2l13.3.2 1.9-3.8c1-2 2.2-5.5 2.6-7.7.5-2.2 1-4.7 1.2-5.5.2-.8.5-5.9.7-11.4.3-9.7-1.4-21.7-3.4-24.1-.6-.7-4.1-1.5-7.8-1.8-10.5-.8-21.2-4.8-35.2-13.2-3-1.8-8.9-4.8-13-6.6-4.1-1.9-9.6-4.5-12.2-5.9l-4.7-2.6 2.7-3.9c1.5-2.2 7.6-11.1 13.5-19.8 6-8.6 10.7-16.5 10.5-17.4-.4-1.9-6.4-6.8-9.5-7.8-1.9-.5-2.9.4-6.7 5.7z"/></svg>